Coordinates
version=1
nRows=17
nColumns=24
inDegrees=yes

Units are S.I. units (second, meters, Newtons, ...)
Angles are in degrees.

endheader
time	pelvis_tilt	pelvis_list	pelvis_rotation	pelvis_tx	pelvis_ty	pelvis_tz	hip_flexion_r	hip_adduction_r	hip_rotation_r	knee_angle_r	ankle_angle_r	subtalar_angle_r	mtp_angle_r	hip_flexion_l	hip_adduction_l	hip_rotation_l	knee_angle_l	ankle_angle_l	subtalar_angle_l	mtp_angle_l	lumbar_extension	lumbar_bending	lumbar_rotation
      0.48300000	     -1.28905926	      6.06529060	     -5.77690414	     -0.73655149	      1.00041651	      0.29025582	     23.38782137	     -3.50365888	      2.58639429	     -4.28669118	      3.11060028	     -2.66629385	      9.01790029	    -14.61951723	     11.39296725	      5.13811749	     -3.30340412	      4.94188882	    -11.90825215	      2.03633557	    -10.55900462	      2.57113246	     -6.50924721
      0.48716667	     -1.37780890	      6.02888004	     -5.78799165	     -0.73082014	      0.99979545	      0.29059371	     23.42895921	     -3.39186230	      2.81465918	     -4.42104377	      3.01304842	     -2.30669410	      9.04637898	    -14.55097653	     11.35947057	      5.04056400	     -3.96077459	      5.08665619	    -11.67441863	      2.07111469	    -10.45792591	      2.61517180	     -6.42467955
      0.49133333	     -1.44427071	      5.99045346	     -5.80256641	     -0.72508428	      0.99923785	      0.29096171	     23.43477850	     -3.27589814	      3.11397902	     -4.60181276	      2.84866144	     -2.13927545	      9.09417854	    -14.46025995	     11.32367561	      4.86540307	     -4.71251159	      5.27100169	    -11.33518780	      2.16564921	    -10.36784899	      2.67827558	     -6.35272738
      0.49550000	     -1.47246889	      5.90343359	     -5.82084785	     -0.71930336	      0.99878635	      0.29134099	     23.38204746	     -3.11540783	      3.40946363	     -4.83037226	      2.62033803	     -2.03024120	      9.15835190	    -14.40005373	     11.23966590	      4.67920409	     -5.49100751	      5.42518623	    -11.00006456	      2.32108538	    -10.34267137	      2.78386547	     -6.27640987
      0.49966667	     -1.50444554	      5.83172734	     -5.85595703	     -0.71353013	      0.99831174	      0.29175857	     23.36531435	     -2.96033272	      3.73241333	     -5.17353966	      2.38537993	     -1.97652554	      9.28763261	    -14.30473243	     11.17321404	      4.45443120	     -6.32339582	      5.59147833	    -10.62280395	      2.66529272	    -10.31316060	      2.87023772	     -6.20863014
      0.50383333	     -1.56585440	      5.73942144	     -5.85928269	     -0.70770212	      0.99787781	      0.29212863	     23.35757794	     -2.79519031	      4.01577171	     -5.54035957	      2.09812935	     -1.96560607	      9.38591128	    -14.14998869	     11.07719511	      4.25563940	     -7.21968569	      5.66831233	    -10.32028139	      2.96127951	    -10.23556475	      2.99262242	     -6.10756194
      0.50800000	     -1.58642815	      5.63005887	     -5.87543752	     -0.70185376	      0.99751439	      0.29253042	     23.30866183	     -2.61279261	      4.30404684	     -5.96051155	      1.79218064	     -1.99056193	      9.49488380	    -14.01256339	     10.96471398	      3.99613364	     -8.16557669	      5.75691108	     -9.93980898	      3.32549251	    -10.21163917	      3.12281637	     -6.01333015
      0.51216667	     -1.61895707	      5.51225553	     -5.89336608	     -0.69598056	      0.99714872	      0.29293719	     23.27789043	     -2.41903393	      4.58828477	     -6.43324087	      1.46696032	     -2.07773406	      9.60901484	    -13.83234000	     10.84214429	      3.72162071	     -9.17304361	      5.81733890	     -9.57614161	      3.74931300	    -10.17138233	      3.26656906	     -5.91879617
      0.51633333	     -1.63534404	      5.39014567	     -5.90661328	     -0.69010669	      0.99682609	      0.29335018	     23.23794199	     -2.22421347	      4.85506953	     -6.95821997	      1.14982876	     -2.19063215	      9.74028400	    -13.63248340	     10.70968236	      3.41772867	    -10.24955728	      5.85678060	     -9.16274366	      4.27877363	    -10.16691533	      3.39932278	     -5.82470701
      0.52050000	     -1.65247130	      5.27525808	     -5.90468050	     -0.68420323	      0.99653166	      0.29373918	     23.19876086	     -2.04348006	      5.09247124	     -7.51113957	      0.81887975	     -2.38433790	      9.88530289	    -13.40270559	     10.57861895	      3.10553801	    -11.37714050	      5.83170834	     -8.76264606	      4.93438367	    -10.14016578	      3.53941589	     -5.73281589
      0.52466667	     -1.60535909	      5.13308444	     -5.94146304	     -0.67826818	      0.99632830	      0.29417208	     23.08836898	     -1.83139524	      5.34328923	     -8.07661887	      0.42400200	     -2.60686670	     11.15193027	    -13.24414724	     10.43163882	      2.78160225	    -12.47586552	      5.58027231	     -8.58492648	     11.01980687	    -10.20418639	      3.71349315	     -5.67685815
      0.52883333	     -1.63207457	      5.00520275	     -5.94300999	     -0.67232912	      0.99604036	      0.29453944	     23.10269315	     -1.63880155	      5.49569830	     -8.77288302	      0.22933525	     -2.72973743	     11.16486516	    -12.95533208	     10.28749129	      2.48976736	    -13.69126887	      5.44828434	     -8.31245234	     11.09696091	    -10.17390322	      3.88169398	     -5.55732671
      0.53300000	     -1.60672454	      4.88229329	     -5.91868360	     -0.66641001	      0.99585249	      0.29491881	     23.03321303	     -1.46621322	      5.64307759	     -9.41625177	     -0.07041092	     -3.00325367	     11.18944222	    -12.66564088	     10.12611800	      2.10534833	    -15.00797673	      5.33566905	     -7.80369099	     11.35700672	    -10.21076215	      4.01094087	     -5.46312428
      0.53716667	     -1.62319061	      4.75477381	     -5.90977585	     -0.66045769	      0.99561690	      0.29531047	     23.01345273	     -1.27795265	      5.80999020	    -10.08659322	     -0.28362780	     -3.26198650	     11.21073839	    -12.30646993	      9.95985332	      1.72414277	    -16.35930145	      5.08274634	     -7.46814265	     11.64799953	    -10.18428213	      4.15308375	     -5.35885711
      0.54133333	     -1.54007317	      4.54980448	     -5.88406864	     -0.65445655	      0.99555759	      0.29570707	     22.84878865	     -1.03056212	      5.91833362	    -10.71797731	     -0.50129786	     -3.62915264	     11.27730030	    -12.02984636	      9.69343309	      1.25265436	    -17.76844946	      4.86321630	     -6.91982655	     12.77184076	    -10.29622146	      4.41055558	     -5.25740937
      0.54550000	     -1.57187409	      4.45462435	     -5.88291623	     -0.64853704	      0.99530514	      0.29611433	     22.88259677	     -0.86722960	      6.07353011	    -11.46784868	     -0.67730584	     -3.98464675	     11.51477651	    -11.59632434	      9.54794415	      0.86775732	    -19.17503716	      4.32840422	     -6.77407899	     17.89625661	    -10.25626659	      4.50914198	     -5.15688295
      0.54966667	     -1.57477311	      4.33987561	     -5.85383669	     -0.64259058	      0.99511319	      0.29646199	     22.88649935	     -0.70990349	      6.11698652	    -12.24642477	     -0.67873355	     -4.11815446	     11.51695865	    -11.15336881	      9.36591043	      0.44875350	    -20.66513049	      3.84853782	     -6.45706573	     17.99065358	    -10.24575493	      4.63821345	     -5.05480777
